<?xml version="1.0" encoding="utf-8"?>
<!-- Generator: Adobe Illustrator 23.0.6, SVG Export Plug-In . SVG Version: 6.00 Build 0)  -->
<svg version="1.1"
	 id="Layer_1" xmlns:cc="http://creativecommons.org/ns#" xmlns:dc="http://purl.org/dc/elements/1.1/" xmlns:inkscape="http://www.inkscape.org/namespaces/inkscape" xmlns:rdf="http://www.w3.org/1999/02/22-rdf-syntax-ns#" xmlns:sodipodi="http://sodipodi.sourceforge.net/DTD/sodipodi-0.dtd" xmlns:svg="http://www.w3.org/2000/svg"
	 xmlns="http://www.w3.org/2000/svg" xmlns:xlink="http://www.w3.org/1999/xlink" x="0px" y="0px" viewBox="0 0 7.4 7.4"
	 style="enable-background:new 0 0 7.4 7.4;" xml:space="preserve">
<g transform="translate(0,-288.53332)">
	<path d="M5,290c-0.5,0-0.9,0.4-0.9,0.9c0,0.5,0.4,0.9,0.9,0.9s0.9-0.4,0.9-0.9c0,0,0,0,0,0C6,290.4,5.5,290,5,290
		C5,290,5,290,5,290z M5,290.3c0.4,0,0.7,0.3,0.7,0.6c0,0,0,0,0,0c0,0.4-0.3,0.7-0.7,0.7c-0.4,0-0.7-0.3-0.7-0.7c0,0,0,0,0,0
		C4.4,290.6,4.6,290.3,5,290.3z"/>
	<path d="M2.4,292.6c-0.5,0-0.9,0.4-0.9,0.9c0,0.5,0.4,0.9,0.9,0.9s0.9-0.4,0.9-0.9c0,0,0,0,0,0C3.3,293,2.9,292.6,2.4,292.6
		C2.4,292.6,2.4,292.6,2.4,292.6z M2.4,292.9c0.4,0,0.7,0.3,0.7,0.6c0,0,0,0,0,0c0,0.4-0.3,0.7-0.7,0.7c-0.4,0-0.7-0.3-0.7-0.7
		c0,0,0,0,0,0C1.7,293.2,2,292.9,2.4,292.9z"/>
	<path d="M0.9,288.5v0.9H0v0.3h0.9v2.4H0v0.3h0.9v2.4H0v0.3h0.9v0.9h0.3V295h2.4v0.9h0.3V295h2.4v0.9h0.3V295h0.9v-0.3H6.5v-2.4h0.9
		v-0.3H6.5v-2.4h0.9v-0.3H6.5v-0.9H6.2v0.9H3.8v-0.9H3.6v0.9H1.2v-0.9H0.9z M1.2,289.7h2.4v2.4H1.2L1.2,289.7z M3.8,289.7h2.4v2.4
		H3.8V289.7z M1.2,292.4h2.4v2.4H1.2L1.2,292.4z M3.8,292.4h2.4v2.4H3.8V292.4z"/>
	<path d="M4.1,294.3c-0.1,0.1-0.1,0.1,0,0.2s0.1,0.1,0.2,0l0,0l0.7-0.7l0.7,0.7c0.1,0.1,0.1,0.1,0.2,0s0.1-0.1,0-0.2l0,0l-0.7-0.7
		l0.7-0.7c0.1-0.1,0.1-0.1,0-0.2s-0.1-0.1-0.2,0l0,0L5,293.4l-0.7-0.7c-0.1-0.1-0.1-0.1-0.2,0s-0.1,0.1,0,0.2l0,0l0.7,0.7L4.1,294.3
		z"/>
	<path d="M1.5,291.7c-0.1,0.1-0.1,0.1,0,0.2c0.1,0.1,0.1,0.1,0.2,0l0,0l0.7-0.7l0.7,0.7c0.1,0.1,0.1,0.1,0.2,0s0.1-0.1,0-0.2l0,0
		l-0.7-0.7l0.7-0.7c0.1-0.1,0.1-0.1,0-0.2s-0.1-0.1-0.2,0l-0.7,0.7L1.6,290c-0.1-0.1-0.1-0.1-0.2,0c-0.1,0.1-0.1,0.1,0,0.2l0.7,0.7
		L1.5,291.7z"/>
	<path d="M6.5,295.9L6.5,295.9"/>
	<path d="M1.2,295.9L1.2,295.9"/>
</g>
</svg>
